<svg xmlns="http://www.w3.org/2000/svg" width="680" height="425" viewBox="0 0 680 425" fill="none">
  <path d="M340 -218L340.083 212.576L504.937 -185.192L340.24 212.642L644.762 -91.7629L340.358 212.76L738.192 48.0625L340.424 212.917L771 213L340.424 213.083L738.192 377.937L340.358 213.24L644.762 517.762L340.24 213.358L504.937 611.192L340.083 213.424L340 644L339.917 213.424L175.063 611.192L339.76 213.358L35.2371 517.762L339.642 213.24L-58.1922 377.937L339.576 213.083L-91 213L339.576 212.917L-58.1922 48.0625L339.642 212.76L35.2371 -91.7629L339.76 212.642L175.063 -185.192L339.917 212.576L340 -218Z" stroke="white" stroke-opacity="0.05" stroke-width="4"/>
</svg>