<svg width="1263" height="165" viewBox="0 0 1263 165" fill="none" xmlns="http://www.w3.org/2000/svg">
<rect opacity="0.98" x="19.8425" y="10.564" width="7.64646" height="11.4697" transform="rotate(8 19.8425 10.564)" fill="#8B0837"/>
<rect opacity="0.94" x="167.343" y="49.564" width="5.59497" height="8.39246" transform="rotate(34 167.343 49.564)" fill="#8B0837"/>
<rect opacity="0.76" x="361.843" y="77.564" width="7.92621" height="11.8893" transform="rotate(-2 361.843 77.564)" fill="#8B0837"/>
<rect opacity="0.7" x="492.343" y="29.564" width="6.34096" height="9.51145" transform="rotate(-1 492.343 29.564)" fill="#8B0837"/>
<rect opacity="0.99" x="746.843" y="9.56396" width="6.34096" height="9.51145" transform="rotate(-112 746.843 9.56396)" fill="#8B0837"/>
<rect opacity="0.71" x="814.343" y="48.564" width="7.36671" height="11.0501" transform="rotate(119 814.343 48.564)" fill="#8B0837"/>
<rect opacity="0.85" x="1025.84" y="103.564" width="7.83296" height="11.7494" transform="rotate(175 1025.84 103.564)" fill="#8B0837"/>
<rect opacity="0.81" x="1257.34" y="77.564" width="10.4439" height="15.6659" transform="rotate(-161 1257.34 77.564)" fill="#8B0837"/>
<rect opacity="0.71" x="336.843" y="144.23" width="10.7237" height="16.0855" transform="rotate(-8 336.843 144.23)" fill="#8B0837"/>
<rect opacity="0.79" x="561.343" y="117.23" width="9.7912" height="14.6868" transform="rotate(174 561.343 117.23)" fill="#8B0837"/>
<rect opacity="0.94" x="621.843" y="129.23" width="8.6722" height="13.0083" transform="rotate(-121 621.843 129.23)" fill="#8B0837"/>
<rect opacity="0.9" x="934.343" y="153.23" width="6.06122" height="9.09183" transform="rotate(121 934.343 153.23)" fill="#8B0837"/>
<rect opacity="0.83" x="1179.34" y="141.23" width="8.4857" height="12.7286" transform="rotate(-18 1179.34 141.23)" fill="#8B0837"/>
<rect opacity="0.83" x="2.84253" y="80.564" width="10.3126" height="10.3126" transform="rotate(16 2.84253 80.564)" fill="#0A7BFF"/>
<rect opacity="0.74" x="154.287" y="65.564" width="14.7856" height="14.7856" transform="rotate(-16 154.287 65.564)" fill="#0A7BFF"/>
<rect opacity="0.98" x="374.731" y="37.564" width="7.9519" height="7.9519" transform="rotate(166 374.731 37.564)" fill="#0A7BFF"/>
<rect opacity="0.71" x="411.176" y="82.564" width="13.9158" height="13.9158" transform="rotate(-109 411.176 82.564)" fill="#0A7BFF"/>
<rect opacity="0.92" x="652.62" y="52.564" width="10.8096" height="10.8096" transform="rotate(-90 652.62 52.564)" fill="#0A7BFF"/>
<rect opacity="0.9" x="686.065" y="18.564" width="11.4309" height="11.4309" transform="rotate(4 686.065 18.564)" fill="#0A7BFF"/>
<rect opacity="0.7" x="869.509" y="66.564" width="11.0581" height="11.0581" transform="rotate(-145 869.509 66.564)" fill="#0A7BFF"/>
<rect opacity="0.99" x="1037.95" y="18.564" width="9.81563" height="9.81563" transform="rotate(100 1037.95 18.564)" fill="#0A7BFF"/>
<rect opacity="0.97" x="1192.4" y="9.56396" width="13.4188" height="13.4188" transform="rotate(39 1192.4 9.56396)" fill="#0A7BFF"/>
<rect opacity="0.97" x="46.8425" y="152.064" width="12.5491" height="12.5491" transform="rotate(-168 46.8425 152.064)" fill="#0A7BFF"/>
<rect opacity="0.73" x="170.287" y="121.064" width="12.6733" height="12.6733" transform="rotate(9 170.287 121.064)" fill="#0A7BFF"/>
<rect opacity="0.98" x="266.731" y="97.064" width="9.19438" height="9.19438" transform="rotate(67 266.731 97.064)" fill="#0A7BFF"/>
<rect opacity="0.96" x="472.176" y="125.064" width="12.6733" height="12.6733" transform="rotate(-72 472.176 125.064)" fill="#0A7BFF"/>
<rect opacity="0.96" x="641.62" y="90.064" width="14.5371" height="14.5371" transform="rotate(18 641.62 90.064)" fill="#0A7BFF"/>
<rect opacity="0.75" x="691.065" y="88.064" width="13.5431" height="13.5431" transform="rotate(14 691.065 88.064)" fill="#0A7BFF"/>
<rect opacity="0.73" x="947.509" y="146.064" width="13.6673" height="13.6673" transform="rotate(-59 947.509 146.064)" fill="#0A7BFF"/>
<rect opacity="0.84" x="1061.95" y="122.064" width="10.9339" height="10.9339" transform="rotate(-80 1061.95 122.064)" fill="#0A7BFF"/>
<rect opacity="0.71" x="1161.4" y="146.064" width="12.3006" height="12.3006" transform="rotate(84 1161.4 146.064)" fill="#0A7BFF"/>
<rect opacity="0.82" x="206.843" y="149.564" width="12.3919" height="18.5879" transform="rotate(-66 206.843 149.564)" fill="#EFEFEF"/>
<rect opacity="0.88" x="371.843" y="145.564" width="10.8963" height="16.3445" transform="rotate(19 371.843 145.564)" fill="#EFEFEF"/>
<rect opacity="0.72" x="653.843" y="62.564" width="6.94374" height="10.4156" transform="rotate(178 653.843 62.564)" fill="#EFEFEF"/>
<rect opacity="0.79" x="959.843" y="71.564" width="8.86663" height="13.2999" transform="rotate(145 959.843 71.564)" fill="#EFEFEF"/>
<rect opacity="0.81" x="1159.84" y="116.564" width="11.11" height="16.665" transform="rotate(-112 1159.84 116.564)" fill="#EFEFEF"/>
</svg>
