<svg width="1440" height="947" viewBox="0 0 1440 947" fill="none" xmlns="http://www.w3.org/2000/svg">
<rect opacity="0.71" x="179.36" y="49.0062" width="38.7534" height="16.6086" transform="rotate(63 179.36 49.0062)" fill="#F8F8F8"/>
<rect opacity="0.9" x="313.584" y="96.7772" width="43.7007" height="18.7289" transform="rotate(95 313.584 96.7772)" fill="#F8F8F8"/>
<rect opacity="0.82" x="449.772" y="38.5358" width="41.6393" height="17.8454" transform="rotate(102 449.772 38.5358)" fill="#F8F8F8"/>
<rect opacity="0.87" x="649.435" y="35.2639" width="30.0957" height="12.8982" transform="rotate(82 649.435 35.2639)" fill="#F8F8F8"/>
<rect opacity="0.96" x="797.402" y="92.8508" width="46.1743" height="19.789" transform="rotate(84 797.402 92.8508)" fill="#F8F8F8"/>
<rect opacity="0.79" x="847.209" y="41.8078" width="45.3497" height="19.4356" transform="rotate(26 847.209 41.8078)" fill="#F8F8F8"/>
<rect opacity="0.73" x="1067.16" y="-4" width="38.3411" height="16.4319" transform="rotate(85 1067.16 -4)" fill="#F8F8F8"/>
<rect x="1281.22" y="65.3661" width="46.1743" height="19.789" transform="rotate(-42 1281.22 65.3661)" fill="#F8F8F8"/>
<rect opacity="0.91" x="1381.42" y="73.2189" width="32.1571" height="13.7816" transform="rotate(-134 1381.42 73.2189)" fill="#F8F8F8"/>
<rect opacity="0.7" x="66.1493" y="192.174" width="30.508" height="13.0749" transform="rotate(-25 66.1493 192.174)" fill="#F8F8F8"/>
<rect opacity="0.9" x="288.063" y="116.264" width="41.6393" height="17.8454" transform="rotate(118 288.063 116.264)" fill="#F8F8F8"/>
<rect opacity="0.74" x="443.228" y="152.91" width="34.6307" height="14.8417" transform="rotate(32 443.228 152.91)" fill="#F8F8F8"/>
<rect opacity="0.83" x="562.401" y="116.918" width="36.2798" height="15.5485" transform="rotate(63 562.401 116.918)" fill="#F8F8F8"/>
<rect opacity="0.86" x="760.756" y="187.593" width="39.9902" height="17.1387" transform="rotate(-161 760.756 187.593)" fill="#F8F8F8"/>
<rect x="896.289" y="117.573" width="25.973" height="11.1313" transform="rotate(68 896.289 117.573)" fill="#F8F8F8"/>
<rect opacity="0.79" x="1067.81" y="119.536" width="43.7007" height="18.7289" transform="rotate(-28 1067.81 119.536)" fill="#F8F8F8"/>
<rect opacity="0.94" x="1296.93" y="128.043" width="40.8148" height="17.492" transform="rotate(-56 1296.93 128.043)" fill="#F8F8F8"/>
<rect opacity="0.79" x="1399.08" y="124.771" width="35.043" height="15.0184" transform="rotate(-21 1399.08 124.771)" fill="#F8F8F8"/>
<rect opacity="0.81" x="75.3109" y="271.21" width="25.5608" height="10.9546" transform="rotate(-134 75.3109 271.21)" fill="#F8F8F8"/>
<rect opacity="0.84" x="247.49" y="288.879" width="34.2184" height="14.665" transform="rotate(-113 247.49 288.879)" fill="#F8F8F8"/>
<rect opacity="0.93" x="492.962" y="252.233" width="36.6921" height="15.7252" transform="rotate(-139 492.962 252.233)" fill="#F8F8F8"/>
<rect opacity="0.74" x="620.642" y="207.08" width="48.2356" height="20.6724" transform="rotate(152 620.642 207.08)" fill="#F8F8F8"/>
<rect opacity="0.9" x="701.86" y="281.681" width="42.4639" height="18.1988" transform="rotate(-112 701.86 281.681)" fill="#F8F8F8"/>
<rect opacity="0.83" x="958.457" y="290.188" width="35.8675" height="15.3718" transform="rotate(51 958.457 290.188)" fill="#F8F8F8"/>
<rect opacity="0.9" x="1043.6" y="227.366" width="32.5694" height="13.9583" transform="rotate(-2 1043.6 227.366)" fill="#F8F8F8"/>
<rect opacity="0.98" x="1247.19" y="207.08" width="41.227" height="17.6687" transform="rotate(-43 1247.19 207.08)" fill="#F8F8F8"/>
<rect opacity="0.86" x="1311.39" y="245.035" width="32.9816" height="14.135" transform="rotate(-12 1311.39 245.035)" fill="#F8F8F8"/>
<rect opacity="0.91" x="147.295" y="310.329" width="29.2712" height="12.5448" transform="rotate(17 147.295 310.329)" fill="#F8F8F8"/>
<rect opacity="0.83" x="242.255" y="359.409" width="40.8148" height="17.492" transform="rotate(96 242.255 359.409)" fill="#F8F8F8"/>
<rect opacity="0.93" x="372.553" y="399.981" width="33.3939" height="14.3117" transform="rotate(-84 372.553 399.981)" fill="#F8F8F8"/>
<rect opacity="0.96" x="513.321" y="363.335" width="43.7007" height="18.7289" transform="rotate(-14 513.321 363.335)" fill="#F8F8F8"/>
<rect opacity="0.71" x="761.41" y="345.012" width="28.0344" height="12.0147" transform="rotate(65 761.41 345.012)" fill="#F8F8F8"/>
<rect opacity="0.81" x="957.148" y="337.814" width="42.4639" height="18.1988" transform="rotate(-54 957.148 337.814)" fill="#F8F8F8"/>
<rect opacity="0.95" x="1104.46" y="382.967" width="42.8761" height="18.3755" transform="rotate(-29 1104.46 382.967)" fill="#F8F8F8"/>
<rect x="1144.45" y="360.063" width="49.0602" height="21.0258" transform="rotate(72 1144.45 360.063)" fill="#F8F8F8"/>
<rect opacity="0.83" x="1342.15" y="376.423" width="41.227" height="17.6687" transform="rotate(-117 1342.15 376.423)" fill="#F8F8F8"/>
<rect opacity="0.95" x="183.286" y="431.247" width="35.8675" height="15.3718" transform="rotate(15 183.286 431.247)" fill="#F8F8F8"/>
<rect opacity="0.93" x="306.386" y="458.732" width="39.9902" height="17.1387" transform="rotate(12 306.386 458.732)" fill="#F8F8F8"/>
<rect opacity="0.78" x="420.978" y="480.981" width="40.8148" height="17.492" transform="rotate(157 420.978 480.981)" fill="#F8F8F8"/>
<rect opacity="0.84" x="582.033" y="482.944" width="46.5866" height="19.9657" transform="rotate(178 582.033 482.944)" fill="#F8F8F8"/>
<rect x="722.146" y="450.225" width="36.6921" height="15.7252" transform="rotate(-115 722.146 450.225)" fill="#F8F8F8"/>
<rect opacity="0.77" x="900.215" y="427.975" width="38.3411" height="16.4319" transform="rotate(170 900.215 427.975)" fill="#F8F8F8"/>
<rect opacity="0.9" x="1120.82" y="430.593" width="35.8675" height="15.3718" transform="rotate(60 1120.82 430.593)" fill="#F8F8F8"/>
<rect opacity="0.72" x="1144.45" y="490.797" width="42.0516" height="18.0221" transform="rotate(-139 1144.45 490.797)" fill="#F8F8F8"/>
<rect opacity="0.92" x="1428.53" y="509.12" width="39.9902" height="17.1387" transform="rotate(-138 1428.53 509.12)" fill="#F8F8F8"/>
<rect opacity="0.99" x="60.9141" y="594.701" width="38.3411" height="16.4319" transform="rotate(98 60.9141 594.701)" fill="#F8F8F8"/>
<rect opacity="0.81" x="302.46" y="537.768" width="24.7362" height="10.6012" transform="rotate(140 302.46 537.768)" fill="#F8F8F8"/>
<rect opacity="0.93" x="470.712" y="554.783" width="43.7007" height="18.7289" transform="rotate(-7 470.712 554.783)" fill="#F8F8F8"/>
<rect opacity="0.77" x="537.534" y="603.863" width="34.6307" height="14.8417" transform="rotate(161 537.534 603.863)" fill="#F8F8F8"/>
<rect opacity="0.76" x="813.108" y="524.026" width="32.5694" height="13.9583" transform="rotate(10 813.108 524.026)" fill="#F8F8F8"/>
<rect opacity="0.81" x="924.428" y="617.605" width="30.9203" height="13.2515" transform="rotate(123 924.428 617.605)" fill="#F8F8F8"/>
<rect opacity="0.91" x="1060.62" y="526.644" width="26.3853" height="11.308" transform="rotate(35 1060.62 526.644)" fill="#F8F8F8"/>
<rect opacity="0.86" x="1288.42" y="562.636" width="37.9289" height="16.2552" transform="rotate(-118 1288.42 562.636)" fill="#F8F8F8"/>
<rect opacity="0.83" x="1361.78" y="620.222" width="38.3411" height="16.4319" transform="rotate(-13 1361.78 620.222)" fill="#F8F8F8"/>
<rect opacity="0.82" x="117.192" y="638.4" width="36.2798" height="15.5485" transform="rotate(105 117.192 638.4)" fill="#F8F8F8"/>
<rect x="210.189" y="648.871" width="30.0957" height="12.8982" transform="rotate(-177 210.189 648.871)" fill="#F8F8F8"/>
<rect opacity="0.76" x="485.109" y="671.12" width="49.0602" height="21.0258" transform="rotate(-40 485.109 671.12)" fill="#F8F8F8"/>
<rect opacity="0.84" x="626.532" y="671.12" width="26.7976" height="11.4847" transform="rotate(77 626.532 671.12)" fill="#F8F8F8"/>
<rect opacity="0.88" x="741.778" y="694.678" width="32.5694" height="13.9583" transform="rotate(125 741.778 694.678)" fill="#F8F8F8"/>
<rect opacity="0.91" x="924.428" y="650.179" width="28.0344" height="12.0147" transform="rotate(171 924.428 650.179)" fill="#F8F8F8"/>
<rect opacity="0.83" x="986.668" y="670.466" width="28.4467" height="12.1914" transform="rotate(170 986.668 670.466)" fill="#F8F8F8"/>
<rect opacity="0.98" x="1216.43" y="688.789" width="44.9375" height="19.2589" transform="rotate(122 1216.43 688.789)" fill="#F8F8F8"/>
<rect opacity="0.73" x="1430.5" y="632.511" width="30.508" height="13.0749" transform="rotate(75 1430.5 632.511)" fill="#F8F8F8"/>
<rect opacity="0.91" x="79.8917" y="831.956" width="25.5608" height="10.9546" transform="rotate(-159 79.8917 831.956)" fill="#F8F8F8"/>
<rect opacity="0.89" x="201.682" y="829.339" width="28.0344" height="12.0147" transform="rotate(-95 201.682 829.339)" fill="#F8F8F8"/>
<rect opacity="0.93" x="498.851" y="814.288" width="25.1485" height="10.7779" transform="rotate(1 498.851 814.288)" fill="#F8F8F8"/>
<rect x="647.472" y="829.993" width="25.1485" height="10.7779" transform="rotate(64 647.472 829.993)" fill="#F8F8F8"/>
<rect opacity="0.77" x="718.22" y="755.392" width="49.4724" height="21.2025" transform="rotate(26 718.22 755.392)" fill="#F8F8F8"/>
<rect opacity="0.81" x="941.442" y="758.01" width="30.508" height="13.0749" transform="rotate(-42 941.442 758.01)" fill="#F8F8F8"/>
<rect opacity="0.74" x="1083.52" y="765.208" width="39.578" height="16.962" transform="rotate(172 1083.52 765.208)" fill="#F8F8F8"/>
<rect opacity="0.71" x="1149.03" y="765.208" width="42.4639" height="18.1988" transform="rotate(39 1149.03 765.208)" fill="#F8F8F8"/>
<rect opacity="0.76" x="1395.16" y="773.715" width="40.8148" height="17.492" transform="rotate(-87 1395.16 773.715)" fill="#F8F8F8"/>
<rect opacity="0.88" x="39.319" y="841.627" width="42.4639" height="18.1988" transform="rotate(125 39.319 841.627)" fill="#F8F8F8"/>
<rect opacity="0.89" x="270.394" y="901.177" width="34.2184" height="14.665" transform="rotate(-80 270.394 901.177)" fill="#F8F8F8"/>
<rect opacity="0.97" x="422.941" y="894.633" width="46.5866" height="19.9657" transform="rotate(147 422.941 894.633)" fill="#F8F8F8"/>
<rect opacity="0.99" x="566.981" y="857.332" width="42.8761" height="18.3755" transform="rotate(-116 566.981 857.332)" fill="#F8F8F8"/>
<rect opacity="0.95" x="802.637" y="895.942" width="28.4467" height="12.1914" transform="rotate(-5 802.637 895.942)" fill="#F8F8F8"/>
<rect opacity="0.87" x="883.201" y="895.942" width="43.7007" height="18.7289" transform="rotate(-19 883.201 895.942)" fill="#F8F8F8"/>
<rect opacity="0.93" x="1074.36" y="933.243" width="31.3326" height="13.4282" transform="rotate(-10 1074.36 933.243)" fill="#F8F8F8"/>
<rect opacity="0.93" x="1162.77" y="873.038" width="41.6393" height="17.8454" transform="rotate(-133 1162.77 873.038)" fill="#F8F8F8"/>
<rect x="1320.56" y="882.854" width="41.227" height="17.6687" transform="rotate(97 1320.56 882.854)" fill="#F8F8F8"/>
</svg>
