<svg width="447" height="313" viewBox="0 0 447 313" fill="none" xmlns="http://www.w3.org/2000/svg">
<rect opacity="0.96" x="74.5259" y="107.557" width="12.0169" height="18.0253" transform="rotate(-155 74.5259 107.557)" fill="#EFEFEF"/>
<rect opacity="0.91" x="244.298" y="146.321" width="8.6573" height="12.986" transform="rotate(-163 244.298 146.321)" fill="#EFEFEF"/>
<rect opacity="0.78" x="380.152" y="149.552" width="10.3371" height="15.5056" transform="rotate(-45 380.152 149.552)" fill="#EFEFEF"/>
<rect opacity="0.92" x="155.823" y="211.825" width="10.5955" height="15.8933" transform="rotate(146 155.823 211.825)" fill="#EFEFEF"/>
<rect opacity="0.96" x="185.614" y="189.751" width="8.01124" height="12.0169" transform="rotate(127 185.614 189.751)" fill="#EFEFEF"/>
<rect opacity="0.8" x="356.463" y="204.288" width="15.3764" height="23.0646" transform="rotate(67 356.463 204.288)" fill="#EFEFEF"/>
<rect opacity="0.72" x="159.591" y="246.641" width="10.3371" height="15.5056" transform="rotate(61 159.591 246.641)" fill="#EFEFEF"/>
<rect opacity="0.74" x="234.069" y="273.022" width="10.8539" height="16.2809" transform="rotate(90 234.069 273.022)" fill="#EFEFEF"/>
<rect opacity="0.96" x="343.003" y="255.255" width="10.4663" height="15.6994" transform="rotate(-110 343.003 255.255)" fill="#EFEFEF"/>
<rect opacity="0.76" x="15.7184" y="71.6059" width="8.37045" height="12.5557" transform="rotate(122 15.7184 71.6059)" fill="#8B0837"/>
<rect opacity="0.89" x="142.994" y="77.528" width="7.29022" height="10.9353" transform="rotate(-59 142.994 77.528)" fill="#8B0837"/>
<rect opacity="0.72" x="199.202" y="88.2958" width="8.37304" height="12.5595" transform="rotate(142 199.202 88.2958)" fill="#8B0837"/>
<rect opacity="0.92" x="299.019" y="73.2207" width="6.64933" height="9.97399" transform="rotate(-77 299.019 73.2207)" fill="#8B0837"/>
<rect opacity="0.97" x="370.84" y="81.835" width="11.4431" height="17.1647" transform="rotate(-168 370.84 81.835)" fill="#8B0837"/>
<rect opacity="0.85" x="80.325" y="151.646" width="7.29022" height="10.9353" transform="rotate(78 80.325 151.646)" fill="#8B0837"/>
<rect opacity="0.88" x="127.38" y="152.723" width="12.5027" height="18.754" transform="rotate(-11 127.38 152.723)" fill="#8B0837"/>
<rect opacity="0.93" x="200.817" y="122.035" width="9.9236" height="14.8854" transform="rotate(94 200.817 122.035)" fill="#8B0837"/>
<rect opacity="0.72" x="253.256" y="143.57" width="10.2776" height="15.4165" transform="rotate(11 253.256 143.57)" fill="#8B0837"/>
<rect opacity="0.92" x="315.386" y="147.878" width="12.6087" height="18.913" transform="rotate(50 315.386 147.878)" fill="#8B0837"/>
<rect opacity="0.89" x="72.2495" y="214.458" width="9.74787" height="14.6218" transform="rotate(35 72.2495 214.458)" fill="#8B0837"/>
<rect opacity="0.8" x="113.921" y="234.917" width="10.7015" height="16.0522" transform="rotate(80 113.921 234.917)" fill="#8B0837"/>
<rect opacity="0.92" x="187.895" y="215.535" width="10.2337" height="15.3506" transform="rotate(11 187.895 215.535)" fill="#8B0837"/>
<rect opacity="0.78" x="239.796" y="219.842" width="10.4896" height="15.7343" transform="rotate(-40 239.796 219.842)" fill="#8B0837"/>
<rect x="377.839" y="235.456" width="8.99326" height="13.4899" transform="rotate(165 377.839 235.456)" fill="#8B0837"/>
<rect opacity="0.7" x="101.322" y="5.45624" width="12.9106" height="12.9106" transform="rotate(-25 101.322 5.45624)" fill="#0A7BFF"/>
<rect opacity="0.81" x="210.795" y="61.4487" width="9.12032" height="9.12032" transform="rotate(18 210.795 61.4487)" fill="#0A7BFF"/>
<rect opacity="0.71" x="369.791" y="47.8383" width="7.69897" height="7.69897" transform="rotate(125 369.791 47.8383)" fill="#0A7BFF"/>
<rect opacity="0.81" x="50.7135" y="184.56" width="10.0679" height="10.0679" transform="rotate(-88 50.7135 184.56)" fill="#0A7BFF"/>
<rect opacity="0.79" x="235.022" y="125.338" width="9.12032" height="9.12032" transform="rotate(71 235.022 125.338)" fill="#0A7BFF"/>
<rect opacity="0.91" x="446.251" y="106.494" width="11.1339" height="11.1339" transform="rotate(116 446.251 106.494)" fill="#0A7BFF"/>
<rect opacity="0.96" x="56.6359" y="304.442" width="8.64654" height="8.64654" transform="rotate(-22 56.6359 304.442)" fill="#0A7BFF"/>
<rect opacity="0.83" x="258.712" y="264.062" width="11.2523" height="11.2523" transform="rotate(87 258.712 264.062)" fill="#0A7BFF"/>
<rect opacity="0.77" x="326.728" y="286.675" width="13.9766" height="13.9766" transform="rotate(-53 326.728 286.675)" fill="#0A7BFF"/>
</svg>
