<svg xmlns="http://www.w3.org/2000/svg" xmlns:xlink="http://www.w3.org/1999/xlink" width="100" height="101" viewBox="0 0 100 101" fill="none">
  <path d="M24.7845 0.5C11.0964 0.5 0 11.6929 0 25.5C0 39.3073 11.0964 50.5 24.7845 50.5C11.0964 50.5 0 61.6927 0 75.5C0 89.3073 11.0964 100.5 24.7845 100.5C38.4728 100.5 49.569 89.3073 49.569 75.5C49.569 89.3073 60.6651 100.5 74.3534 100.5C88.0417 100.5 99.1379 89.3073 99.1379 75.5C99.1379 61.6927 88.0417 50.5 74.3534 50.5C88.0417 50.5 99.1379 39.3073 99.1379 25.5C99.1379 11.6929 88.0417 0.5 74.3534 0.5C60.6651 0.5 49.569 11.6929 49.569 25.5C49.569 11.6929 38.4728 0.5 24.7845 0.5Z" fill="#000"/>
</svg>