<svg xmlns="http://www.w3.org/2000/svg" xmlns:xlink="http://www.w3.org/1999/xlink" width="100" height="101" viewBox="0 0 100 101" fill="none">
  <path d="M50 0.5C36.7307 0.5 25.974 11.2568 25.974 24.526C25.974 25.6018 25.1018 26.474 24.026 26.474C10.7568 26.474 0 37.2307 0 50.5C0 63.7693 10.7568 74.5261 24.026 74.5261C25.1018 74.5261 25.974 75.3982 25.974 76.4739C25.974 89.7431 36.7307 100.5 50 100.5C63.2693 100.5 74.0261 89.7431 74.0261 76.4739C74.0261 75.3982 74.8982 74.5261 75.9739 74.5261C89.2431 74.5261 100 63.7693 100 50.5C100 37.2307 89.2431 26.474 75.9739 26.474C74.8982 26.474 74.0261 25.6018 74.0261 24.526C74.0261 11.2568 63.2693 0.5 50 0.5Z" fill="#000"/>
</svg>