<svg xmlns="http://www.w3.org/2000/svg" xmlns:xlink="http://www.w3.org/1999/xlink" width="91" height="101" viewBox="0 0 91 101" fill="none">
  <path fill-rule="evenodd" clip-rule="evenodd" d="M58.1129 28.6657C84.2948 -1.63017 109.845 43.1826 70.7304 50.4409C109.845 58.0149 83.9793 102.512 58.1129 72.2158C71.3614 110.086 19.9443 109.77 33.193 72.2158C7.01116 102.512 -18.5397 58.0149 20.5752 50.4409C-18.8551 43.1826 7.01116 -1.3146 33.193 28.6657C19.6289 -8.88855 71.3614 -8.88855 58.1129 28.6657ZM45.495 44.7604C48.6497 44.7604 51.4885 47.2851 51.4885 50.4409C51.4885 53.5966 48.6497 56.437 45.495 56.437C42.3408 56.437 39.817 53.5966 39.817 50.4409C39.817 47.2851 42.3408 44.7604 45.495 44.7604Z" fill="#000"/>
</svg>